<?xml version="1.0" encoding="UTF-8"?>
<svg xmlns="http://www.w3.org/2000/svg" width="120" height="120" viewBox="0 0 120 120">
  <defs>
    <linearGradient id="t2" x1="0" y1="0" x2="1" y2="1">
      <stop offset="0" stop-color="#9aecd9"/>
      <stop offset="1" stop-color="#5fc4ad"/>
    </linearGradient>
    <linearGradient id="s2" x1="0" y1="0" x2="1" y2="0">
      <stop offset="0" stop-color="#5fc4ad"/>
      <stop offset="0.5" stop-color="#9aecd9"/>
      <stop offset="1" stop-color="#5fc4ad"/>
    </linearGradient>
    <linearGradient id="b2" x1="0" y1="0" x2="0" y2="1">
      <stop offset="0" stop-color="#22272b"/>
      <stop offset="1" stop-color="#161a1d"/>
    </linearGradient>
  </defs>
  <rect width="120" height="120" fill="url(#b2)" rx="22"/>
  <line x1="60" y1="14" x2="60" y2="106" stroke="url(#s2)" stroke-width="4" stroke-linecap="round"/>
  <circle cx="60" cy="14" r="4.5" fill="url(#t2)"/>
  <circle cx="60" cy="106" r="4.5" fill="url(#t2)"/>
  <path d="M60 30 C38 30 38 60 60 60 C82 60 82 30 60 30 Z" fill="url(#t2)"/>
  <path d="M42 40 C49 44 71 44 78 40" fill="none" stroke="#d4f5ec" stroke-width="1.6" stroke-linecap="round" opacity="0.85"/>
  <path d="M40 49 C49 53 71 53 80 49" fill="none" stroke="#d4f5ec" stroke-width="1.6" stroke-linecap="round" opacity="0.7"/>
  <path d="M60 62 C40 62 40 90 60 90 C80 90 80 62 60 62 Z" fill="url(#t2)"/>
  <path d="M44 71 C50 75 70 75 76 71" fill="none" stroke="#d4f5ec" stroke-width="1.6" stroke-linecap="round" opacity="0.85"/>
  <path d="M42 79 C50 83 70 83 78 79" fill="none" stroke="#d4f5ec" stroke-width="1.6" stroke-linecap="round" opacity="0.7"/>
</svg>
